# xmcd
#
# Track frame offsets:
#	182
#	19197
#	42730
#	59125
#	77657
#	91372
#	110337
#	130547
#	152362
#	169022
#	182775
#
# Disc length: 2675 seconds
#
# Revision: 0
# Processed by: cddbd v1.5.2PL0 Copyright (c) Steve Scherf et al.
# Submitted via: EasyCDDAExtractor 12.0.0.1
#
DISCID=890a710b
DTITLE=Phil Edwards - No limits
DYEAR=1995
DGENRE=Country
TTITLE0=Folsom prison blues
TTITLE1=Always on my mind
TTITLE2=Ladies love outlaws
TTITLE3=Down in the alley
TTITLE4=Even cowgirls got the blues
TTITLE5=Young contry
TTITLE6=Wild the circle be un broken
TTITLE7=Polk salad Annie
TTITLE8=Goodnight Irene
TTITLE9=Drinkin' wine spo-dee o'dee
TTITLE10=New Orlean (avec Ahmed Mouici)
EXTD=
EXTT0=
EXTT1=
EXTT2=
EXTT3=
EXTT4=
EXTT5=
EXTT6=
EXTT7=
EXTT8=
EXTT9=
EXTT10=
PLAYORDER=
